#!OML:ASF H:\Terrain\Patient Classification 1\Animal2\Wednesday\Animal2.ASF
:FULLY-SPECIFIED
:DEGREES
1684
root 3.68601 17.521 0.96287 -2.12972 8.23686 -362.684
lowerback 6.86774 -3.533 4.4991
upperback -3.92131 -3.97233 3.92688
thorax -8.03136 -2.05815 2.18012
lowerneck 12.7326 14.6573 21.4094
upperneck -0.974132 22.5432 -19.2174
head 2.33021 11.8423 -8.724
rclavicle -1.88845e-015 -6.36111e-015
rhumerus -32.6459 15.6943 -88.1732
rradius 21.613
rwrist 17.3185
rhand -17.9272 4.3415
rfingers 7.12502
rthumb 8.3406 -25.4738
lclavicle -1.88845e-015 -6.36111e-015
lhumerus -47.8276 -46.2142 110.152
lradius 58.6937
lwrist 47.3788
lhand -31.7005 53.7851
lfingers 7.12502
lthumb -4.95951 83.7071
rfemur -8.74201 -4.72134 24.5509
rtibia 30.8884
rfoot -25.0789 -0.677325
rtoes 2.90971
lfemur -10.0949 16.9773 -18.1716
ltibia 39.9055
lfoot -27.1784 6.22594
ltoes -15.5467
1685
root 3.73747 17.5174 1.02065 -2.25122 7.99797 -363.013
lowerback 6.9538 -3.44725 4.79961
upperback -3.86858 -3.8117 4.06288
thorax -8.03766 -1.99048 2.13874
lowerneck 12.7064 14.7367 21.2427
upperneck -0.973846 22.6176 -19.0888
head 2.31447 11.8743 -8.65271
rclavicle 2.01766e-014 2.54444e-014
rhumerus -31.72 15.0457 -88.005
rradius 20.667
rwrist 18.5046
rhand -18.0963 4.34858
rfingers 7.12502
rthumb 8.17744 -25.4732
lclavicle 2.01766e-014 2.54444e-014
lhumerus -47.9902 -45.3771 110.204
lradius 57.5085
lwrist 45.3187
lhand -30.0221 54.9762
lfingers 7.12502
lthumb -3.33883 84.9298
rfemur -8.44617 -4.11004 24.8792
rtibia 30.9489
rfoot -24.9866 -1.3865
rtoes 1.56324
lfemur -10.6115 17.6204 -17.4631
ltibia 40.9712
lfoot -27.1401 5.49654
ltoes -13.6103
1686
root 3.79187 17.5186 1.07869 -2.40883 7.86048 -362.987
lowerback 7.10974 -3.38168 4.79504
upperback -3.75183 -3.71825 4.06746
thorax -8.00103 -1.94317 2.13672
lowerneck 12.401 14.8602 21.1378
upperneck -0.74334 22.7318 -18.8863
head 2.41531 11.912 -8.52402
rclavicle 3.24019e-014 3.18055e-015
rhumerus -30.725 14.4755 -87.9271
rradius 19.7603
rwrist 19.6477
rhand -18.6838 4.56911
rfingers 7.12502
rthumb 7.61041 -25.274
lclavicle 3.24019e-014 3.18055e-015
lhumerus -48.9832 -45.2228 111.117
lradius 56.6048
lwrist 46.2957
lhand -31.9248 53.4933
lfingers 7.12502
lthumb -5.17616 83.4101
rfemur -8.06547 -3.66182 24.7656
rtibia 30.973
rfoot -24.8894 -2.18082
rtoes -0.391049
lfemur -10.9885 18.0631 -17.1523
ltibia 41.8118
lfoot -26.9971 5.38316
ltoes -12.1269
1687
root 3.84743 17.5224 1.14021 -2.4677 7.76587 -362.417
lowerback 7.18957 -3.30152 4.25499
upperback -3.66512 -3.67801 3.93098
thorax -7.92314 -1.89942 2.28465
lowerneck 12.2283 14.9623 21.0862
upperneck -0.582672 22.8447 -18.7619
head 2.49033 11.9574 -8.44153
rclavicle 2.08724e-015 9.54166e-015
rhumerus -30.0402 14.0083 -87.9489
rradius 19.3793
rwrist 20.4556
rhand -19.0321 4.54232
rfingers 7.12502
rthumb 7.27417 -25.3126
lclavicle 2.08724e-015 9.54166e-015
lhumerus -50.24 -45.0912 112.223
lradius 55.6806
lwrist 47.3346
lhand -34.0689 52.2588
lfingers 7.12502
lthumb -7.24605 82.1147
rfemur -7.61635 -3.42752 23.986
rtibia 30.8547
rfoot -24.8126 -2.56736
rtoes -1.57059
lfemur -11.2941 18.291 -17.4581
ltibia 42.4423
lfoot -26.6386 5.08436
ltoes -10.6489
1688
root 3.90478 17.5273 1.20623 -2.6199 7.77616 -362.075
lowerback 7.33418 -3.29658 3.98993
upperback -3.66668 -3.69904 3.80934
thorax -7.99768 -1.89947 2.31592
lowerneck 12.6455 14.9107 21.3103
upperneck -0.768508 22.8716 -18.9702
head 2.4279 11.9954 -8.57616
rclavicle -2.87244e-014 -1.43125e-014
rhumerus -29.5858 12.8225 -87.8736
rradius 19.2992
rwrist 21.5324
rhand -18.9097 4.38182
rfingers 7.12502
rthumb 7.39234 -25.469
lclavicle -2.87244e-014 -1.43125e-014
lhumerus -51.7984 -44.8694 113.421
lradius 54.7472
lwrist 47.6001
lhand -34.612 52.3092
lfingers 7.12502
lthumb -7.77025 82.1464
rfemur -6.9605 -3.23837 23.4289
rtibia 30.5747
rfoot -24.6362 -2.77746
rtoes -2.07435
lfemur -11.498 18.374 -17.4793
ltibia 42.8604
lfoot -26.1302 5.39597
ltoes -11.9781
1689
root 3.96861 17.5368 1.27326 -2.86085 7.96183 -362.204
lowerback 7.50014 -3.36336 4.22939
upperback -3.6804 -3.74948 3.80943
thorax -8.12642 -1.93578 2.20409
lowerneck 12.8144 14.8325 21.5547
upperneck -0.578534 22.8541 -18.9907
head 2.48409 11.9975 -8.62345
rclavicle -1.49089e-015 2.8625e-014
rhumerus -29.1775 11.7982 -87.8563
rradius 19.3674
rwrist 22.262
rhand -18.5878 4.25495
rfingers 7.12502
rthumb 7.70297 -25.5847
lclavicle -1.49089e-015 2.8625e-014
lhumerus -53.7278 -45.009 115.125
lradius 53.6351
lwrist 47.9622
lhand -35.2111 51.8558
lfingers 7.12502
lthumb -8.34855 81.6708
rfemur -6.16913 -3.28882 23.3383
rtibia 30.1233
rfoot -24.3672 -2.68953
rtoes -1.81437
lfemur -11.6829 18.2609 -17.0006
ltibia 43.0678
lfoot -25.8352 6.15368
ltoes -13.2344
1690
root 4.03452 17.5605 1.34424 -2.9755 8.13951 -362.347
lowerback 7.50274 -3.43103 4.4616
upperback -3.68425 -3.81029 3.85153
thorax -8.14661 -1.97602 2.13009
lowerneck 12.5799 14.9116 21.5677
upperneck -0.0579856 22.9612 -18.6439
head 2.65269 12.0344 -8.46238
rclavicle -5.63555e-014 2.38542e-014
rhumerus -29.0136 12.1862 -88.3152
rradius 19.8674
rwrist 21.4614
rhand -18.4289 4.03301
rfingers 7.12502
rthumb 7.85639 -25.801
lclavicle -5.63555e-014 2.38542e-014
lhumerus -55.6397 -45.1059 116.858
lradius 52.4383
lwrist 48.4595
lhand -35.7222 51.1191
lfingers 7.12502
lthumb -8.84171 80.9139
rfemur -5.41247 -3.32584 23.2513
rtibia 29.4946
rfoot -24.0897 -2.21505
rtoes -0.310898
lfemur -11.939 18.0958 -16.5296
ltibia 43.0548
lfoot -25.6416 6.58359
ltoes -13.4204
1691
root 4.09973 17.5977 1.42186 -2.87169 8.16008 -362.311
lowerback 7.36623 -3.41931 4.4821
upperback -3.8118 -3.79449 3.86726
thorax -8.20567 -1.9701 2.13103
lowerneck 12.6639 14.9581 21.6455
upperneck 0.250977 23.0754 -18.426
head 2.73471 12.0927 -8.38726
rclavicle -7.7526e-015 7.95139e-015
rhumerus -29.2761 12.9849 -88.997
rradius 20.7028
rwrist 19.6143
rhand -18.0543 3.79167
rfingers 7.12502
rthumb 8.21797 -26.0285
lclavicle -7.7526e-015 7.95139e-015
lhumerus -57.4479 -44.6779 118.267
lradius 51.5319
lwrist 49.254
lhand -35.719 51.1805
lfingers 7.12502
lthumb -8.83862 80.9754
rfemur -4.8065 -3.06929 23.0137
rtibia 28.7583
rfoot -23.7957 -1.63233
rtoes 1.91212
lfemur -12.2799 17.9931 -16.2851
ltibia 42.8043
lfoot -25.1816 6.61505
ltoes -13.8043
1692
root 4.16747 17.6333 1.49411 -2.76137 8.21587 -362.323
lowerback 7.23732 -3.38696 4.53676
upperback -3.93839 -3.74453 3.91115
thorax -8.26876 -1.94841 2.13847
lowerneck 12.786 14.9295 21.7384
upperneck 0.465232 23.0901 -18.2916
head 2.77544 12.1053 -8.36024
rclavicle 2.3059e-014 4.45278e-014
rhumerus -29.4832 13.2397 -89.5042
rradius 21.3923
rwrist 17.9086
rhand -18.0323 4.02274
rfingers 7.12502
rthumb 8.23916 -25.7966
lclavicle 2.3059e-014 4.45278e-014
lhumerus -58.9585 -44.1691 119.339
lradius 50.7941
lwrist 49.6301
lhand -35.1454 52.5313
lfingers 7.12502
lthumb -8.28505 82.3489
rfemur -4.23778 -2.77056 22.8621
rtibia 28.0189
rfoot -23.3724 -1.59233
rtoes 2.21763
lfemur -12.6168 17.7958 -16.0244
ltibia 42.3395
lfoot -24.9651 6.68731
ltoes -13.3709
1693
root 4.23984 17.6673 1.56372 -2.70175 8.381 -362.479
lowerback 7.08223 -3.40448 4.79704
upperback -4.00502 -3.74223 3.9785
thorax -8.26544 -1.95972 2.05894
lowerneck 12.7928 14.9108 21.6977
upperneck 0.607857 23.0637 -18.0685
head 2.77833 12.0885 -8.28778
rclavicle -6.36111e-015 -6.36111e-015
rhumerus -29.5983 13.7214 -90.088
rradius 22.2205
rwrist 15.8134
rhand -18.5013 4.5755
rfingers 7.12502
rthumb 7.78648 -25.2611
lclavicle -6.36111e-015 -6.36111e-015
lhumerus -60.534 -43.9423 120.519
lradius 50.0673
lwrist 50.0924
lhand -34.7624 53.4002
lfingers 7.12502
lthumb -7.91549 83.2321
rfemur -3.57939 -2.61329 22.8595
rtibia 27.235
rfoot -22.8536 -2.01397
rtoes 0.995868
lfemur -12.9271 17.5256 -15.6231
ltibia 41.74
lfoot -24.9313 7.34272
ltoes -13.3492
1694
root 4.31347 17.7022 1.64043 -2.49912 8.43945 -362.456
lowerback 6.77718 -3.38912 4.92504
upperback -4.11869 -3.72764 3.94941
thorax -8.22178 -1.96189 1.94042
lowerneck 12.8938 14.8782 21.7425
upperneck 0.731767 23.0437 -17.8107
head 2.7679 12.0782 -8.22416
rclavicle 1.27222e-014 -1.74931e-014
rhumerus -29.9332 14.4716 -90.8339
rradius 23.4843
rwrist 13.8057
rhand -18.351 4.49403
rfingers 7.12502
rthumb 7.93156 -25.3372
lclavicle 1.27222e-014 -1.74931e-014
lhumerus -62.5306 -43.7714 121.953
lradius 49.6157
lwrist 51.5978
lhand -35.5311 52.8889
lfingers 7.12502
lthumb -8.65728 82.6914
rfemur -2.95772 -2.44663 22.6488
rtibia 26.305
rfoot -22.2715 -2.36035
rtoes -0.185517
lfemur -13.3039 17.319 -15.4429
ltibia 41.0612
lfoot -24.6233 8.46572
ltoes -14.6497
1695
root 4.38567 17.7351 1.72003 -2.39505 8.42568 -362.381
lowerback 6.5414 -3.35706 4.99139
upperback -4.17605 -3.69936 3.86762
thorax -8.15599 -1.95513 1.79987
lowerneck 12.8498 14.8771 21.8772
upperneck 1.0042 23.0647 -17.5295
head 2.83956 12.0831 -8.13788
rclavicle 4.90998e-014 -2.06736e-014
rhumerus -30.2492 14.8118 -91.4482
rradius 24.742
rwrist 13.3374
rhand -17.6247 4.10316
rfingers 7.12502
rthumb 8.63257 -25.7003
lclavicle 4.90998e-014 -2.06736e-014
lhumerus -64.4707 -43.517 123.145
lradius 49.3699
lwrist 53.0264
lhand -36.0285 52.7816
lfingers 7.12502
lthumb -9.13728 82.5637
rfemur -2.20646 -2.25404 22.391
rtibia 25.2705
rfoot -21.6075 -2.83364
rtoes -2.77968
lfemur -13.487 17.1487 -15.2465
ltibia 40.2663
lfoot -24.4946 8.7899
ltoes -12.5187
1696
root 4.46133 17.7642 1.80038 -2.42846 8.44361 -362.489
lowerback 6.32652 -3.34135 5.23329
upperback -4.15297 -3.67289 3.85592
thorax -8.02371 -1.95508 1.63402
lowerneck 12.8421 14.8458 21.9145
upperneck 1.03116 23.0201 -17.3883
head 2.82645 12.0573 -8.10421
rclavicle 1.33186e-014 2.54444e-014
rhumerus -30.5291 15.1709 -91.9591
rradius 25.9364
rwrist 13.2459
rhand -17.5317 4.37861
rfingers 7.12502
rthumb 8.72231 -25.4212
lclavicle 1.33186e-014 2.54444e-014
lhumerus -66.1614 -43.2556 124.134
lradius 49.0783
lwrist 53.8706
lhand -35.9621 52.882
lfingers 7.12502
lthumb -9.0732 82.6668
rfemur -1.3672 -2.06195 22.3076
rtibia 24.2461
rfoot -21.1117 -3.11008
rtoes -3.89475
lfemur -13.4481 16.9337 -14.8013
ltibia 39.3051
lfoot -24.3031 8.7043
ltoes -9.02059
